<svg width="422" height="356" viewBox="0 0 422 356" fill="none" xmlns="http://www.w3.org/2000/svg">
<path d="M338.312 285.409C315.548 310.788 292.598 331.638 273.906 344.834C264.556 351.434 256.3 356.099 249.684 358.467C246.376 359.652 243.51 360.25 241.14 360.246C238.776 360.242 236.949 359.642 235.646 358.473C234.343 357.304 233.548 355.553 233.288 353.203C233.028 350.848 233.312 347.934 234.13 344.517C235.768 337.684 239.511 328.971 245.06 318.96C256.153 298.948 274.393 273.875 297.157 248.495C319.92 223.116 342.87 202.266 361.562 189.07C370.913 182.469 379.169 177.805 385.784 175.437C389.093 174.252 391.959 173.654 394.328 173.658C396.692 173.661 398.519 174.262 399.822 175.431C401.125 176.6 401.921 178.351 402.18 180.701C402.441 183.056 402.157 185.97 401.338 189.387C399.7 196.22 395.958 204.933 390.409 214.944C379.316 234.956 361.075 260.029 338.312 285.409Z" stroke="white" stroke-width="1.27651"/>
<path d="M88.6964 106.724C65.5647 81.6801 46.9598 56.8757 35.5757 37.0278C29.8811 27.0993 26.0114 18.4421 24.2744 11.6333C23.4058 8.22847 23.0793 5.31897 23.3051 2.96044C23.5305 0.60707 24.3001 -1.15521 25.5861 -2.34298C26.8721 -3.53074 28.6898 -4.15828 31.0536 -4.1964C33.4226 -4.23461 36.2971 -3.6785 39.6224 -2.54274C46.2721 -0.271505 54.5953 4.2722 64.0412 10.7359C82.9243 23.6574 106.176 44.1699 129.308 69.2139C152.439 94.2579 171.044 119.062 182.428 138.91C188.123 148.839 191.993 157.496 193.73 164.305C194.598 167.71 194.925 170.619 194.699 172.978C194.474 175.331 193.704 177.093 192.418 178.281C191.132 179.469 189.314 180.096 186.95 180.134C184.581 180.173 181.707 179.617 178.382 178.481C171.732 176.21 163.409 171.666 153.963 165.202C135.08 152.281 111.828 131.768 88.6964 106.724Z" stroke="white" stroke-width="1.27651"/>
<path d="M91.0579 112.624C66.7616 88.7083 46.9983 64.8166 34.6834 45.5324C28.5232 35.8859 24.2463 27.4225 22.1875 20.7039C21.158 17.3443 20.6935 14.4536 20.807 12.087C20.9202 9.72556 21.6052 7.92867 22.8332 6.68111C24.0612 5.43355 25.8471 4.72029 28.2064 4.56982C30.5709 4.41901 33.4686 4.83783 36.8441 5.8142C43.5943 7.7667 52.1241 11.9095 61.8666 17.9168C81.3427 29.9258 105.543 49.3096 129.84 73.2255C154.136 97.1413 173.899 121.033 186.214 140.317C192.374 149.964 196.651 158.427 198.71 165.146C199.74 168.505 200.204 171.396 200.091 173.763C199.977 176.124 199.292 177.921 198.064 179.169C196.836 180.416 195.051 181.129 192.691 181.28C190.327 181.431 187.429 181.012 184.053 180.035C177.303 178.083 168.773 173.94 159.031 167.933C139.555 155.924 115.354 136.54 91.0579 112.624Z" stroke="white" stroke-width="1.27651"/>
<path d="M93.7053 118.63C68.2994 95.8966 47.4226 72.9715 34.2047 54.2947C27.5927 44.952 22.9183 36.7015 20.5424 30.0885C19.3543 26.7815 18.7529 23.9162 18.7537 21.5469C18.7545 19.1827 19.3533 17.3553 20.5206 16.0508C21.6879 14.7462 23.4379 13.9489 25.7874 13.6864C28.1421 13.4233 31.0563 13.7039 34.4745 14.5187C41.3098 16.148 50.027 19.8806 60.0441 25.4179C80.0692 36.4873 105.164 54.6985 130.57 77.4321C155.976 100.166 176.853 123.091 190.071 141.768C196.683 151.11 201.357 159.361 203.733 165.974C204.921 169.281 205.523 172.146 205.522 174.515C205.521 176.88 204.922 178.707 203.755 180.012C202.587 181.316 200.838 182.113 198.488 182.376C196.133 182.639 193.219 182.358 189.801 181.544C182.966 179.914 174.248 176.182 164.231 170.644C144.206 159.575 119.111 141.364 93.7053 118.63Z" stroke="white" stroke-width="1.27651"/>
<path d="M96.6455 124.728C70.1874 103.228 48.2441 81.3219 34.1532 63.2946C27.1045 54.2769 22.043 46.258 19.3554 39.7654C18.0114 36.5187 17.2745 33.6852 17.1626 31.3185C17.051 28.957 17.5623 27.1032 18.6662 25.7446C19.7702 24.386 21.4802 23.5064 23.8146 23.1325C26.1541 22.7578 29.0785 22.8995 32.5315 23.5508C39.4365 24.8533 48.3213 28.1672 58.5904 33.2219C79.1191 43.3267 105.052 60.3241 131.51 81.8241C157.968 103.324 179.911 125.231 194.002 143.258C201.051 152.276 206.112 160.295 208.8 166.787C210.144 170.034 210.881 172.867 210.993 175.234C211.104 177.595 210.593 179.449 209.489 180.808C208.385 182.166 206.675 183.046 204.341 183.42C202.001 183.795 199.077 183.653 195.624 183.002C188.719 181.699 179.834 178.385 169.565 173.331C149.036 163.226 123.104 146.228 96.6455 124.728Z" stroke="white" stroke-width="1.27651"/>
<path d="M99.8823 130.905C72.4319 110.687 49.4719 89.8485 34.5398 72.5117C27.0703 63.8392 21.6333 56.07 18.64 49.7126C17.1431 46.5335 16.2723 43.7382 16.0481 41.3795C15.8243 39.026 16.2468 37.15 17.2849 35.7404C18.3231 34.3309 19.9893 33.371 22.3033 32.8865C24.6224 32.401 27.5501 32.4034 31.0302 32.8899C37.9894 33.8626 47.0217 36.7503 57.5195 41.311C78.5054 50.4284 105.217 66.1735 132.667 86.3912C160.118 106.609 183.078 127.447 198.01 144.784C205.479 153.457 210.916 161.226 213.909 167.583C215.406 170.762 216.277 173.558 216.501 175.916C216.725 178.27 216.303 180.146 215.264 181.555C214.226 182.965 212.56 183.925 210.246 184.409C207.927 184.895 204.999 184.892 201.519 184.406C194.56 183.433 185.528 180.546 175.03 175.985C154.044 166.867 127.333 151.122 99.8823 130.905Z" stroke="white" stroke-width="1.27651"/>
<path d="M103.419 137.145C75.0386 118.255 51.1137 98.532 35.3742 81.9247C27.5008 73.6172 21.7006 66.1153 18.4084 59.9074C16.7621 56.803 15.7593 54.0523 15.4232 51.707C15.0878 49.3667 15.4206 47.4727 16.3906 46.0155C17.3605 44.5582 18.9793 43.5201 21.2676 42.9261C23.5609 42.3309 26.4855 42.1942 29.9847 42.5146C36.9823 43.1553 46.1417 45.6103 56.8445 49.6667C78.2402 57.7759 105.67 72.2333 134.051 91.1229C162.431 110.013 186.356 129.736 202.096 146.343C209.969 154.651 215.769 162.152 219.061 168.36C220.708 171.465 221.71 174.215 222.047 176.561C222.382 178.901 222.049 180.795 221.079 182.252C220.109 183.71 218.49 184.748 216.202 185.342C213.909 185.937 210.984 186.074 207.485 185.753C200.487 185.112 191.328 182.657 180.625 178.601C159.23 170.492 131.8 156.034 103.419 137.145Z" stroke="white" stroke-width="1.27651"/>
<path d="M107.259 143.434C78.0122 125.915 53.1767 107.351 36.6654 91.5112C28.4059 83.5875 22.2555 76.3699 18.6719 70.3255C16.8798 67.3029 15.7474 64.603 15.3002 62.2763C14.8539 59.9546 15.0963 58.047 15.9958 56.5452C16.8954 55.0435 18.4629 53.9296 20.7204 53.2275C22.9829 52.5239 25.8976 52.2483 29.4081 52.4019C36.4283 52.7092 45.6941 54.7259 56.5776 58.2689C78.3347 65.3517 106.421 78.4885 135.667 96.0074C164.914 113.526 189.75 132.09 206.261 147.93C214.52 155.853 220.671 163.071 224.254 169.115C226.046 172.138 227.179 174.838 227.626 177.165C228.072 179.486 227.83 181.394 226.93 182.896C226.031 184.398 224.463 185.511 222.206 186.213C219.943 186.917 217.029 187.193 213.518 187.039C206.498 186.732 197.232 184.715 186.349 181.172C164.592 174.089 136.506 160.952 107.259 143.434Z" stroke="white" stroke-width="1.27651"/>
<path d="M111.403 149.759C81.3569 133.65 55.6668 116.288 38.421 101.251C29.7941 93.7292 23.3075 86.8122 19.4405 80.945C17.5068 78.0111 16.2473 75.3681 15.6899 73.0653C15.1338 70.7675 15.2852 68.8504 16.1123 67.3076C16.9395 65.7648 18.4523 64.5776 20.6738 63.769C22.9003 62.9586 25.7986 62.5447 29.3125 62.5313C36.3393 62.5045 45.6905 64.0783 56.7301 67.0998C78.7994 73.1401 107.478 84.9267 137.525 101.035C167.571 117.144 193.261 134.505 210.507 149.542C219.134 157.064 225.621 163.981 229.488 169.849C231.421 172.783 232.681 175.426 233.238 177.728C233.794 180.026 233.643 181.943 232.816 183.486C231.989 185.029 230.476 186.216 228.254 187.025C226.028 187.835 223.13 188.249 219.616 188.262C212.589 188.289 203.238 186.715 192.198 183.694C170.129 177.654 141.45 165.867 111.403 149.759Z" stroke="white" stroke-width="1.27651"/>
<path d="M115.854 156.104C85.0756 141.442 58.5891 125.322 40.6478 111.122C31.673 104.018 24.8649 97.4175 20.7233 91.7408C18.6523 88.9021 17.2686 86.322 16.6023 84.0483C15.9375 81.7795 15.9976 79.8575 16.7505 78.2771C17.5033 76.6967 18.958 75.4389 21.1386 74.5256C23.3239 73.6102 26.1993 73.059 29.7086 72.8785C36.7262 72.5176 46.1416 73.6451 57.3125 76.1383C79.6439 81.1224 108.851 91.5321 139.629 106.194C170.408 120.855 196.894 136.976 214.836 151.176C223.81 158.279 230.618 164.88 234.76 170.557C236.831 173.396 238.215 175.976 238.881 178.249C239.546 180.518 239.486 182.44 238.733 184.021C237.98 185.601 236.525 186.859 234.345 187.772C232.159 188.688 229.284 189.239 225.775 189.419C218.757 189.78 209.342 188.653 198.171 186.159C175.839 181.175 146.633 170.766 115.854 156.104Z" stroke="white" stroke-width="1.27651"/>
<path d="M120.613 162.456C89.1726 149.275 61.9496 134.432 43.3534 121.101C34.0511 114.432 26.9368 108.163 22.53 102.689C20.3264 99.9522 18.8215 97.4408 18.0479 95.2013C17.276 92.9668 17.2447 91.044 17.9215 89.4296C18.5984 87.8152 19.9916 86.4896 22.1263 85.4737C24.2657 84.4555 27.1116 83.7682 30.6083 83.421C37.6008 82.7269 47.0592 83.4054 58.3359 85.3647C80.8791 89.2814 110.548 98.2906 141.989 111.472C173.429 124.654 200.652 139.497 219.249 152.828C228.551 159.497 235.665 165.766 240.072 171.24C242.276 173.977 243.781 176.488 244.554 178.727C245.326 180.962 245.357 182.885 244.681 184.499C244.004 186.114 242.61 187.439 240.476 188.455C238.336 189.473 235.49 190.161 231.994 190.508C225.001 191.202 215.543 190.523 204.266 188.564C181.723 184.647 152.054 175.638 120.613 162.456Z" stroke="white" stroke-width="1.27651"/>
<path d="M125.677 168.799C93.6455 157.128 65.7475 143.596 46.5386 131.164C36.9297 124.945 29.5253 119.021 24.8633 113.763C22.532 111.134 20.9094 108.697 20.0303 106.497C19.153 104.302 19.0302 102.382 19.6295 100.738C20.2289 99.0929 21.5575 97.7027 23.6415 96.5864C25.73 95.4676 28.5401 94.6458 32.0163 94.1328C38.9679 93.1069 48.4478 93.335 59.805 94.7559C82.5089 97.5963 112.573 105.185 144.604 116.857C176.636 128.528 204.534 142.06 223.743 154.492C233.352 160.711 240.757 166.635 245.419 171.893C247.75 174.522 249.372 176.959 250.252 179.159C251.129 181.354 251.252 183.273 250.652 184.918C250.053 186.563 248.724 187.953 246.64 189.07C244.552 190.188 241.742 191.01 238.266 191.523C231.314 192.549 221.834 192.321 210.477 190.9C187.773 188.06 157.709 180.471 125.677 168.799Z" stroke="white" stroke-width="1.27651"/>
<path d="M131.047 175.119C98.4968 164.984 69.987 152.794 50.2087 141.289C40.315 135.534 32.6373 129.969 27.7306 124.939C25.2769 122.423 23.5403 120.066 22.5575 117.91C21.5768 115.759 21.363 113.848 21.8834 112.177C22.4039 110.505 23.6649 109.053 25.6934 107.839C27.7264 106.622 30.4942 105.668 33.9421 104.99C40.8371 103.635 50.3171 103.412 61.729 104.291C84.5423 106.049 114.933 112.199 147.483 122.335C180.034 132.471 208.544 144.661 228.322 156.165C238.216 161.92 245.894 167.486 250.8 172.516C253.254 175.031 254.991 177.388 255.973 179.544C256.954 181.695 257.168 183.606 256.647 185.278C256.127 186.949 254.866 188.401 252.837 189.615C250.804 190.832 248.037 191.786 244.589 192.464C237.694 193.819 228.214 194.042 216.802 193.163C193.989 191.405 163.598 185.255 131.047 175.119Z" stroke="white" stroke-width="1.27651"/>
<path d="M136.722 181.401C103.726 172.825 74.6691 162.004 54.3661 151.453C44.21 146.175 36.2764 140.981 31.1361 136.19C28.5656 133.794 26.7189 131.522 25.6346 129.415C24.5528 127.313 24.2483 125.415 24.6887 123.72C25.1291 122.026 26.3197 120.516 28.2882 119.207C30.261 117.895 32.9803 116.81 36.3921 115.969C43.2148 114.287 52.6736 113.614 64.1143 113.949C86.9854 114.62 117.634 119.319 150.63 127.895C183.625 136.472 212.683 147.293 232.986 157.844C243.142 163.122 251.075 168.316 256.216 173.107C258.786 175.503 260.633 177.775 261.717 179.881C262.799 181.983 263.103 183.882 262.663 185.576C262.223 187.271 261.032 188.781 259.063 190.09C257.091 191.402 254.371 192.487 250.96 193.328C244.137 195.01 234.678 195.683 223.237 195.347C200.366 194.676 169.718 189.978 136.722 181.401Z" stroke="white" stroke-width="1.27651"/>
<path d="M142.699 187.63C109.333 180.632 79.7939 171.205 59.0122 161.632C48.6166 156.843 40.445 152.031 35.0827 147.49C32.4012 145.219 30.4486 143.038 29.2654 140.985C28.0849 138.937 27.6904 137.055 28.0498 135.341C28.4091 133.628 29.5265 132.063 31.4306 130.662C33.3388 129.257 36.0034 128.044 39.3714 127.042C46.1064 125.038 55.5224 123.916 66.9662 123.707C89.8433 123.29 120.681 126.526 154.047 133.524C187.413 140.522 216.952 149.949 237.733 159.522C248.129 164.312 256.301 169.123 261.663 173.664C264.344 175.935 266.297 178.116 267.48 180.169C268.661 182.217 269.055 184.099 268.696 185.813C268.337 187.526 267.219 189.091 265.315 190.492C263.407 191.897 260.742 193.11 257.374 194.112C250.639 196.116 241.223 197.238 229.779 197.447C206.902 197.864 176.065 194.628 142.699 187.63Z" stroke="white" stroke-width="1.27651"/>
<path d="M148.975 193.794C115.314 188.39 85.3605 180.378 64.1471 171.804C53.5356 167.514 45.1445 163.097 39.5723 158.816C36.7859 156.675 34.7317 154.589 33.4523 152.595C32.1757 150.605 31.6922 148.744 31.9697 147.015C32.2472 145.287 33.2889 143.67 35.1242 142.18C36.9635 140.687 39.5674 139.348 42.8839 138.187C49.516 135.865 58.868 134.296 70.289 133.544C93.1204 132.039 124.077 133.805 157.738 139.209C191.399 144.613 221.353 152.624 242.566 161.199C253.177 165.489 261.569 169.906 267.141 174.187C269.927 176.328 271.981 178.414 273.261 180.408C274.537 182.398 275.021 184.259 274.743 185.988C274.466 187.716 273.424 189.333 271.589 190.823C269.75 192.316 267.146 193.655 263.829 194.816C257.197 197.138 247.845 198.707 236.424 199.459C213.593 200.964 182.637 199.198 148.975 193.794Z" stroke="white" stroke-width="1.27651"/>
<path d="M155.548 199.877C121.668 196.08 91.367 189.501 69.7699 181.945C58.9664 178.165 50.3748 174.152 44.6054 170.14C41.7203 168.134 39.5693 166.148 38.1965 164.217C36.8268 162.29 36.2554 160.454 36.4503 158.714C36.6453 156.975 37.609 155.31 39.3713 153.735C41.1375 152.155 43.6749 150.695 46.9324 149.377C53.4467 146.742 62.7135 144.731 74.0858 143.436C96.8198 140.848 127.825 141.14 161.705 144.937C195.585 148.734 225.886 155.313 247.483 162.869C258.286 166.649 266.878 170.662 272.647 174.674C275.532 176.68 277.683 178.666 279.056 180.597C280.426 182.524 280.997 184.36 280.802 186.1C280.607 187.839 279.644 189.503 277.881 191.079C276.115 192.659 273.578 194.119 270.32 195.437C263.806 198.072 254.539 200.083 243.167 201.378C220.433 203.966 189.428 203.674 155.548 199.877Z" stroke="white" stroke-width="1.27651"/>
<path d="M162.412 205.865C128.39 203.683 97.8106 198.553 75.8787 192.032C64.9077 188.77 56.135 185.17 50.1814 181.437C47.2042 179.571 44.9612 177.689 43.4981 175.825C42.0383 173.966 41.3802 172.159 41.4922 170.412C41.6043 168.665 42.4878 166.957 44.1732 165.299C45.8623 163.638 48.3273 162.058 51.5185 160.587C57.9001 157.646 67.0608 155.195 78.3587 153.362C100.944 149.695 131.928 148.513 165.95 150.695C199.973 152.877 230.552 158.007 252.484 164.528C263.455 167.79 272.227 171.391 278.181 175.123C281.158 176.99 283.401 178.871 284.864 180.735C286.324 182.594 286.982 184.401 286.87 186.148C286.758 187.895 285.875 189.603 284.189 191.261C282.5 192.923 280.035 194.502 276.844 195.973C270.462 198.915 261.301 201.365 250.004 203.199C227.418 206.865 196.434 208.047 162.412 205.865Z" stroke="white" stroke-width="1.27651"/>
<path d="M169.563 211.745C135.476 211.184 104.687 207.513 82.4702 202.042C71.3565 199.305 62.4225 196.126 56.2982 192.681C53.2356 190.958 50.9057 189.185 49.3557 187.393C47.8091 185.605 47.0658 183.832 47.0947 182.081C47.1235 180.331 47.9248 178.583 49.5295 176.847C51.1377 175.107 53.5248 173.412 56.6425 171.791C62.877 168.549 71.9109 165.666 83.1087 163.297C105.494 158.561 136.387 155.907 170.474 156.469C204.562 157.031 235.35 160.702 257.568 166.173C268.681 168.909 277.615 172.088 283.74 175.534C286.802 177.256 289.132 179.029 290.682 180.821C292.229 182.609 292.972 184.383 292.943 186.133C292.914 187.883 292.113 189.632 290.508 191.368C288.9 193.108 286.513 194.803 283.395 196.424C277.161 199.665 268.127 202.548 256.929 204.917C234.544 209.653 203.651 212.307 169.563 211.745Z" stroke="white" stroke-width="1.27651"/>
<path d="M176.996 217.504C142.921 218.563 111.992 216.361 89.5403 211.952C78.3091 209.747 69.234 206.996 62.9528 203.846C59.8118 202.271 57.4002 200.611 55.7667 198.895C54.1369 197.182 53.3102 195.446 53.2557 193.696C53.2013 191.946 53.9186 190.162 55.4389 188.352C56.9626 186.537 59.2664 184.731 62.3035 182.963C68.3768 179.429 77.2634 176.12 88.336 173.221C110.471 167.426 141.202 163.306 175.278 162.247C209.354 161.187 240.282 163.39 262.734 167.798C273.966 170.003 283.041 172.754 289.322 175.904C292.463 177.479 294.874 179.139 296.508 180.856C298.138 182.568 298.964 184.304 299.019 186.054C299.073 187.804 298.356 189.588 296.836 191.398C295.312 193.213 293.008 195.02 289.971 196.787C283.898 200.321 275.011 203.63 263.939 206.529C241.804 212.324 211.072 216.444 176.996 217.504Z" stroke="white" stroke-width="1.27651"/>
<path d="M184.705 223.127C150.718 225.805 119.72 225.076 97.0837 221.74C85.7603 220.071 76.5647 217.755 70.1408 214.907C66.9285 213.483 64.4407 211.939 62.7275 210.303C61.018 208.67 60.1097 206.975 59.9721 205.23C59.8346 203.484 60.4662 201.668 61.8987 199.787C63.3344 197.903 65.5497 195.988 68.4993 194.079C74.3978 190.26 83.117 186.532 94.0392 183.11C115.874 176.269 146.374 170.692 180.361 168.014C214.348 165.335 245.346 166.065 267.982 169.401C279.306 171.07 288.501 173.386 294.925 176.233C298.138 177.658 300.625 179.201 302.339 180.838C304.048 182.471 304.956 184.166 305.094 185.911C305.231 187.656 304.6 189.472 303.167 191.353C301.732 193.238 299.516 195.152 296.567 197.062C290.668 200.881 281.949 204.609 271.027 208.031C249.193 214.872 218.692 220.448 184.705 223.127Z" stroke="white" stroke-width="1.27651"/>
<path d="M192.682 228.602C158.861 232.893 127.863 233.638 105.094 231.382C93.704 230.254 84.4088 228.378 77.8568 225.838C74.5803 224.569 72.0219 223.145 70.2328 221.592C68.4477 220.042 67.4598 218.392 67.2394 216.655C67.0191 214.919 67.5636 213.074 68.9051 211.128C70.2495 209.177 72.3713 207.159 75.2268 205.112C80.937 201.016 89.4691 196.878 100.216 192.941C121.701 185.07 151.902 178.049 185.723 173.758C219.544 169.466 250.541 168.721 273.311 170.977C284.701 172.106 293.996 173.982 300.548 176.521C303.825 177.791 306.383 179.214 308.172 180.768C309.957 182.318 310.945 183.967 311.165 185.704C311.386 187.441 310.841 189.285 309.5 191.232C308.155 193.183 306.034 195.2 303.178 197.248C297.468 201.343 288.936 205.481 278.189 209.419C256.704 217.29 226.503 224.31 192.682 228.602Z" stroke="white" stroke-width="1.27651"/>
<path d="M200.92 233.916C167.342 239.811 136.415 242.029 113.564 240.858C102.133 240.272 92.7591 238.84 86.0938 236.615C82.7607 235.503 80.1375 234.203 78.2766 232.736C76.4197 231.273 75.3545 229.672 75.0518 227.948C74.7491 226.223 75.2054 224.355 76.4528 222.347C77.7029 220.334 79.7264 218.218 82.4813 216.037C87.9903 211.675 96.316 207.136 106.864 202.692C127.95 193.808 157.783 185.36 191.362 179.465C224.94 173.57 255.867 171.352 278.718 172.523C290.149 173.109 299.523 174.541 306.188 176.766C309.522 177.878 312.145 179.178 314.006 180.645C315.862 182.108 316.928 183.709 317.23 185.433C317.533 187.158 317.077 189.026 315.829 191.034C314.579 193.047 312.556 195.163 309.801 197.344C304.292 201.706 295.966 206.245 285.418 210.689C264.333 219.573 234.499 228.021 200.92 233.916Z" stroke="white" stroke-width="1.27651"/>
<path d="M209.412 239.057C176.152 246.541 145.365 250.227 122.485 250.144C111.039 250.103 101.608 249.118 94.844 247.212C91.4617 246.26 88.7797 245.086 86.8512 243.709C84.9268 242.336 83.7867 240.787 83.4024 239.079C83.0181 237.372 83.3849 235.484 84.5355 233.419C85.6885 231.349 87.6091 229.139 90.2571 226.829C95.5525 222.21 103.653 217.28 113.978 212.34C134.617 202.463 164.015 192.606 197.276 185.122C230.536 177.637 261.323 173.951 284.203 174.034C295.649 174.075 305.08 175.06 311.844 176.966C315.226 177.918 317.908 179.092 319.837 180.469C321.761 181.842 322.901 183.391 323.286 185.099C323.67 186.807 323.303 188.694 322.153 190.76C320.999 192.829 319.079 195.039 316.431 197.349C311.135 201.968 303.035 206.898 292.71 211.838C272.071 221.715 242.673 231.572 209.412 239.057Z" stroke="white" stroke-width="1.27651"/>
<path d="M218.149 244.013C185.282 253.071 154.706 258.216 131.847 259.221C120.412 259.724 110.945 259.189 104.098 257.607C100.675 256.816 97.9397 255.771 95.9479 254.488C93.9604 253.208 92.748 251.715 92.2829 250.027C91.8178 248.34 92.0945 246.437 93.1455 244.319C94.1988 242.197 96.0122 239.898 98.5474 237.465C103.617 232.599 111.474 227.29 121.552 221.864C141.699 211.018 170.595 199.774 203.462 190.716C236.329 181.659 266.905 176.513 289.764 175.508C301.199 175.005 310.666 175.541 317.513 177.122C320.937 177.913 323.671 178.958 325.663 180.242C327.651 181.522 328.863 183.014 329.328 184.702C329.793 186.39 329.517 188.293 328.466 190.41C327.412 192.533 325.599 194.831 323.064 197.264C317.994 202.13 310.137 207.44 300.059 212.865C279.912 223.712 251.016 234.956 218.149 244.013Z" stroke="white" stroke-width="1.27651"/>
<path d="M227.122 248.774C194.723 259.384 164.426 265.977 141.64 268.068C130.243 269.114 120.76 269.029 113.846 267.775C110.389 267.148 107.607 266.234 105.557 265.047C103.511 263.862 102.229 262.429 101.684 260.766C101.139 259.102 101.325 257.188 102.274 255.023C103.225 252.853 104.927 250.47 107.344 247.92C112.177 242.818 119.772 237.141 129.581 231.243C149.189 219.45 177.518 206.845 209.917 196.235C242.316 185.625 272.614 179.032 295.399 176.941C306.797 175.895 316.279 175.98 323.193 177.234C326.65 177.861 329.432 178.775 331.482 179.962C333.528 181.147 334.81 182.58 335.355 184.243C335.9 185.907 335.714 187.821 334.765 189.986C333.814 192.156 332.112 194.539 329.695 197.089C324.862 202.191 317.267 207.868 307.458 213.766C287.85 225.559 259.521 238.164 227.122 248.774Z" stroke="white" stroke-width="1.27651"/>
<path d="M236.319 253.327C204.461 265.465 174.512 273.492 151.852 276.664C140.516 278.25 131.041 278.617 124.075 277.693C120.592 277.23 117.77 276.45 115.665 275.362C113.565 274.276 112.216 272.905 111.593 271.269C110.97 269.633 111.065 267.713 111.91 265.505C112.757 263.292 114.343 260.832 116.636 258.169C121.221 252.844 128.538 246.812 138.055 240.453C157.08 227.742 184.778 213.804 216.636 201.666C248.494 189.528 278.443 181.501 301.103 178.329C312.438 176.743 321.914 176.376 328.88 177.3C332.363 177.762 335.185 178.543 337.29 179.631C339.39 180.717 340.739 182.088 341.362 183.724C341.985 185.359 341.89 187.28 341.045 189.488C340.198 191.701 338.611 194.161 336.319 196.824C331.734 202.149 324.417 208.181 314.9 214.54C295.875 227.251 268.177 241.188 236.319 253.327Z" stroke="white" stroke-width="1.27651"/>
<path d="M245.736 257.663C214.492 271.303 184.958 280.744 162.474 284.99C151.227 287.114 141.78 287.93 134.778 287.338C131.276 287.042 128.421 286.397 126.267 285.41C124.117 284.425 122.705 283.12 122.004 281.516C121.304 279.911 121.307 277.988 122.047 275.743C122.787 273.492 124.255 270.959 126.419 268.19C130.745 262.653 137.767 256.28 146.971 249.477C165.371 235.875 192.374 220.636 223.619 206.997C254.864 193.357 284.398 183.916 306.881 179.67C318.128 177.547 327.576 176.73 334.578 177.322C338.079 177.618 340.935 178.264 343.089 179.25C345.238 180.235 346.65 181.54 347.351 183.144C348.051 184.749 348.048 186.672 347.309 188.917C346.568 191.168 345.1 193.701 342.936 196.47C338.61 202.007 331.588 208.38 322.384 215.184C303.985 228.785 276.981 244.024 245.736 257.663Z" stroke="white" stroke-width="1.27651"/>
<path d="M255.357 261.771C224.796 276.881 195.745 287.716 173.488 293.026C162.355 295.682 152.957 296.947 145.935 296.688C142.423 296.559 139.54 296.05 137.342 295.167C135.148 294.285 133.675 293.049 132.899 291.48C132.123 289.91 132.035 287.989 132.667 285.711C133.3 283.428 134.646 280.828 136.675 277.959C140.733 272.223 147.444 265.523 156.314 258.289C174.046 243.829 200.295 227.323 230.856 212.214C261.417 197.104 290.468 186.269 312.725 180.959C323.858 178.303 333.256 177.038 340.278 177.296C343.79 177.426 346.673 177.935 348.871 178.818C351.065 179.699 352.538 180.936 353.314 182.505C354.089 184.074 354.178 185.995 353.546 188.274C352.913 190.557 351.567 193.157 349.538 196.025C345.48 201.762 338.769 208.462 329.899 215.695C312.167 230.156 285.918 246.662 255.357 261.771Z" stroke="white" stroke-width="1.27651"/>
<path d="M265.173 265.642C235.365 282.187 206.861 294.391 184.882 300.753C173.888 303.936 164.561 305.646 157.534 305.722C154.021 305.76 151.116 305.388 148.878 304.611C146.645 303.834 145.115 302.669 144.266 301.139C143.416 299.608 143.237 297.694 143.759 295.388C144.283 293.077 145.504 290.416 147.394 287.454C151.175 281.531 157.56 274.52 166.076 266.873C183.101 251.586 208.534 233.851 238.342 217.305C268.15 200.759 296.654 188.555 318.633 182.193C329.627 179.011 338.954 177.301 345.981 177.225C349.495 177.187 352.399 177.558 354.637 178.336C356.87 179.112 358.4 180.277 359.249 181.808C360.099 183.338 360.278 185.253 359.756 187.559C359.232 189.869 358.011 192.531 356.121 195.492C352.34 201.415 345.955 208.426 337.439 216.074C320.414 231.361 294.981 249.096 265.173 265.642Z" stroke="white" stroke-width="1.27651"/>
<path d="M275.171 269.265C246.183 287.209 218.292 300.755 196.641 308.154C185.81 311.856 176.575 314.008 169.56 314.418C166.052 314.623 163.134 314.39 160.861 313.719C158.594 313.05 157.01 311.959 156.089 310.471C155.167 308.982 154.897 307.078 155.309 304.75C155.722 302.417 156.815 299.701 158.563 296.653C162.058 290.557 168.102 283.25 176.245 275.207C192.523 259.127 217.085 240.203 246.073 222.259C275.061 204.315 302.952 190.769 324.603 183.369C335.434 179.668 344.669 177.516 351.684 177.106C355.192 176.901 358.11 177.134 360.383 177.804C362.65 178.474 364.234 179.564 365.155 181.053C366.077 182.541 366.347 184.445 365.935 186.773C365.521 189.106 364.428 191.822 362.681 194.871C359.186 200.967 353.142 208.273 344.999 216.317C328.72 232.397 304.159 251.321 275.171 269.265Z" stroke="white" stroke-width="1.27651"/>
<path d="M285.34 272.634C257.239 291.937 230.023 306.793 208.748 315.214C198.106 319.426 188.983 322.015 181.996 322.758C178.501 323.129 175.575 323.035 173.273 322.473C170.977 321.913 169.343 320.899 168.352 319.456C167.361 318.013 167 316.124 167.301 313.779C167.603 311.429 168.566 308.664 170.167 305.536C173.368 299.28 179.058 291.695 186.809 283.273C202.304 266.438 225.939 246.367 254.04 227.065C282.142 207.763 309.358 192.906 330.633 184.485C341.275 180.273 350.398 177.685 357.385 176.942C360.879 176.57 363.805 176.664 366.107 177.226C368.404 177.786 370.038 178.801 371.029 180.244C372.02 181.687 372.38 183.576 372.079 185.921C371.777 188.271 370.815 191.036 369.214 194.164C366.013 200.419 360.323 208.005 352.572 216.426C337.076 233.262 313.442 253.332 285.34 272.634Z" stroke="white" stroke-width="1.27651"/>
<path d="M295.669 275.742C268.516 296.358 242.038 312.492 221.187 321.914C210.757 326.628 201.768 329.647 194.824 330.722C191.351 331.259 188.424 331.304 186.098 330.852C183.777 330.402 182.097 329.466 181.039 328.072C179.98 326.678 179.53 324.808 179.719 322.452C179.909 320.09 180.739 317.282 182.189 314.082C185.089 307.681 190.412 299.833 197.754 291.053C212.432 273.5 235.085 252.328 262.237 231.712C289.389 211.095 315.868 194.962 336.718 185.539C347.148 180.825 356.138 177.806 363.082 176.732C366.554 176.194 369.482 176.149 371.808 176.601C374.129 177.051 375.809 177.987 376.867 179.381C377.926 180.775 378.376 182.645 378.186 185.002C377.997 187.363 377.167 190.171 375.716 193.372C372.816 199.772 367.493 207.62 360.151 216.4C345.474 233.954 322.821 255.125 295.669 275.742Z" stroke="white" stroke-width="1.27651"/>
<path d="M306.143 278.579C280.002 300.463 254.32 317.837 233.941 328.241C223.747 333.445 214.912 336.888 208.026 338.291C204.583 338.993 201.661 339.178 199.317 338.837C196.977 338.497 195.254 337.643 194.131 336.3C193.007 334.958 192.469 333.112 192.546 330.749C192.623 328.381 193.319 325.537 194.615 322.271C197.208 315.74 202.151 307.648 209.068 298.528C222.894 280.297 244.515 258.072 270.656 236.188C296.797 214.304 322.479 196.93 342.858 186.526C353.052 181.322 361.887 177.879 368.772 176.476C372.216 175.774 375.138 175.589 377.482 175.93C379.822 176.27 381.545 177.124 382.668 178.467C383.792 179.809 384.33 181.655 384.253 184.018C384.176 186.386 383.48 189.23 382.184 192.496C379.591 199.027 374.648 207.119 367.731 216.239C353.905 234.47 332.284 256.695 306.143 278.579Z" stroke="white" stroke-width="1.27651"/>
<path d="M316.751 281.14C291.679 304.242 266.853 322.818 246.992 334.178C237.057 339.861 228.395 343.721 221.584 345.45C218.178 346.314 215.268 346.638 212.91 346.409C210.557 346.181 208.796 345.409 207.609 344.122C206.423 342.834 205.798 341.016 205.762 338.652C205.727 336.283 206.286 333.409 207.426 330.085C209.705 323.438 214.259 315.12 220.733 305.682C233.677 286.814 254.217 263.587 279.288 240.484C304.359 217.382 329.186 198.806 349.047 187.446C358.982 181.763 367.644 177.903 374.455 176.174C377.86 175.309 380.77 174.986 383.129 175.215C385.482 175.443 387.243 176.215 388.429 177.502C389.616 178.79 390.241 180.608 390.276 182.972C390.312 185.341 389.752 188.215 388.613 191.539C386.333 198.186 381.78 206.504 375.305 215.942C362.362 234.81 341.822 258.037 316.751 281.14Z" stroke="white" stroke-width="1.27651"/>
<path d="M327.478 283.418C303.534 307.686 279.619 327.421 260.32 339.713C250.666 345.862 242.198 350.129 235.477 352.18C232.116 353.206 229.225 353.667 226.858 353.551C224.497 353.435 222.701 352.748 221.455 351.518C220.209 350.289 219.497 348.502 219.35 346.142C219.202 343.778 219.624 340.881 220.604 337.506C222.565 330.758 226.718 322.233 232.736 312.498C244.768 293.036 264.18 268.858 288.125 244.59C312.069 220.322 335.984 200.587 355.283 188.294C364.937 182.145 373.405 177.878 380.126 175.828C383.487 174.802 386.378 174.341 388.744 174.457C391.106 174.573 392.902 175.26 394.148 176.49C395.394 177.719 396.105 179.506 396.253 181.865C396.401 184.23 395.979 187.127 394.998 190.502C393.038 197.249 388.885 205.774 382.866 215.51C370.834 234.972 351.422 259.15 327.478 283.418Z" stroke="white" stroke-width="1.27651"/>
</svg>
