<svg width="292" height="237" viewBox="0 0 292 237" fill="none" xmlns="http://www.w3.org/2000/svg">
<path d="M153.205 75.2407C126.647 131.483 187.285 162.49 220.923 170.962C234.608 178.05 265.564 185.038 279.908 156.288C297.838 120.351 263.704 77.6955 225.276 121.215C186.847 164.735 186.403 4.93727 153.205 75.2407Z" stroke="black" stroke-width="0.718515"/>
<path d="M161.256 71.7482C129.897 125.462 187.602 161.635 220.374 173.007C233.39 181.261 263.619 190.92 280.414 163.53C301.408 129.293 271.121 83.8243 229.046 123.829C186.971 163.834 200.455 4.60566 161.256 71.7482Z" stroke="black" stroke-width="0.718515"/>
<path d="M169.153 68.9519C133.231 119.728 187.564 160.793 219.221 174.978C231.467 184.335 260.739 196.592 279.858 170.77C303.755 138.492 277.547 90.5574 232.145 126.743C186.744 162.929 214.055 5.48127 169.153 68.9519Z" stroke="black" stroke-width="0.718515"/>
<path d="M176.831 66.8364C136.621 114.289 187.167 159.933 217.467 176.823C228.851 187.211 256.944 201.973 278.24 177.915C304.86 147.844 282.929 97.8069 234.546 129.898C186.164 161.989 227.093 7.5208 176.831 66.8364Z" stroke="black" stroke-width="0.718515"/>
<path d="M184.233 65.3794C140.04 109.147 186.417 159.022 215.129 178.489C225.565 189.83 252.264 206.984 275.576 184.874C304.715 157.237 287.229 105.479 236.233 133.231C185.238 160.983 239.474 10.6702 184.233 65.3794Z" stroke="black" stroke-width="0.718515"/>
<path d="M191.304 64.5524C143.465 104.302 185.318 158.029 212.225 179.925C221.632 192.132 246.735 211.547 271.885 191.553C303.322 166.561 290.413 113.476 237.193 136.678C183.973 159.88 251.104 14.8659 191.304 64.5524Z" stroke="black" stroke-width="0.718515"/>
<path d="M197.99 64.3299C146.869 99.7584 183.88 156.929 208.775 181.086C217.083 194.067 240.398 215.596 267.195 197.871C300.691 175.713 292.458 121.705 237.418 140.181C182.378 158.656 261.892 20.0444 197.99 64.3299Z" stroke="black" stroke-width="0.718515"/>
<path d="M204.24 64.6693C150.225 95.5074 182.112 155.687 204.808 181.921C211.953 195.577 233.302 219.056 261.542 203.733C296.842 184.58 293.347 130.06 236.907 143.668C180.466 157.275 271.759 26.1217 204.24 64.6693Z" stroke="black" stroke-width="0.718516"/>
<path d="M210.006 65.5323C153.509 91.5453 180.03 154.275 200.352 182.388C206.28 196.614 225.502 221.865 254.97 209.062C291.805 193.057 293.075 138.44 235.663 147.077C178.251 155.714 280.627 33.016 210.006 65.5323Z" stroke="black" stroke-width="0.718515"/>
<path d="M215.244 66.8767C156.695 87.8667 177.648 152.669 195.443 182.446C200.108 197.135 217.056 223.965 247.528 213.779C285.617 201.046 291.643 146.747 233.697 150.347C175.75 153.948 288.43 40.6392 215.244 66.8767Z" stroke="black" stroke-width="0.718515"/>
<path d="M219.915 68.6538C159.759 84.461 174.984 150.843 190.116 182.058C193.483 197.097 208.029 225.302 239.272 217.81C278.326 208.446 289.061 154.879 231.022 153.415C172.983 151.951 295.109 48.8947 219.915 68.6538Z" stroke="black" stroke-width="0.718515"/>
<path d="M223.98 70.8143C162.676 81.3184 172.057 148.775 184.411 181.19C186.455 196.465 198.487 225.831 230.264 221.09C269.986 215.165 285.349 162.738 227.658 156.221C169.967 149.704 300.611 57.6841 223.98 70.8143Z" stroke="black" stroke-width="0.718515"/>
<path d="M227.414 73.3013C165.427 78.4224 168.894 146.44 178.376 179.808C179.08 195.203 188.507 225.506 220.576 223.553C260.664 221.113 280.537 170.224 223.634 158.704C166.73 147.184 304.897 66.8999 227.414 73.3013Z" stroke="black" stroke-width="0.718515"/>
<path d="M230.187 76.0574C167.99 75.7565 165.515 143.817 172.053 177.885C171.413 193.283 178.163 224.292 210.28 225.142C250.428 226.204 274.661 177.241 218.978 160.805C163.295 144.37 307.934 76.4335 230.187 76.0574Z" stroke="black" stroke-width="0.718515"/>
<path d="M232.279 79.0269C170.345 73.3063 161.948 140.892 165.492 175.4C163.512 190.684 167.533 222.163 199.455 225.809C239.357 230.366 267.765 183.702 213.727 162.475C159.688 141.249 309.697 86.1777 232.279 79.0269Z" stroke="black" stroke-width="0.718515"/>
<path d="M233.674 82.1506C172.474 71.0539 158.219 137.651 158.741 172.336C155.437 187.389 156.699 219.099 188.182 225.513C227.535 233.531 259.902 189.52 207.919 163.665C155.936 137.81 310.174 96.0216 233.674 82.1506Z" stroke="black" stroke-width="0.718515"/>
<path d="M234.361 85.3633C174.361 68.9748 154.356 134.076 151.853 168.675C147.25 183.383 145.744 215.082 176.547 224.215C215.051 235.633 251.132 194.61 201.6 164.322C152.068 134.035 309.361 105.849 234.361 85.3633Z" stroke="black" stroke-width="0.718515"/>
<path d="M234.335 88.6048C175.992 67.0494 150.389 130.159 144.88 164.408C139.012 178.659 134.749 210.106 164.639 221.89C202.002 236.619 241.521 198.897 194.817 164.408C148.114 129.919 307.265 115.549 234.335 88.6048Z" stroke="black" stroke-width="0.718515"/>
<path d="M233.597 91.813C177.354 65.2546 146.348 125.893 137.875 159.531C130.788 173.216 123.8 204.172 152.549 218.516C188.486 236.446 231.142 202.312 187.622 163.884C144.102 125.455 303.9 125.011 233.597 91.813Z" stroke="black" stroke-width="0.718515"/>
<path d="M232.151 94.9257C178.437 63.5665 142.264 121.271 130.891 154.044C122.638 167.059 112.979 197.288 140.369 214.083C174.606 235.077 220.075 204.79 180.07 162.715C140.065 120.64 299.293 134.125 232.151 94.9257Z" stroke="black" stroke-width="0.718515"/>
<path d="M230.009 97.8828C179.232 61.9614 138.167 116.294 123.982 147.951C114.626 160.197 102.369 189.469 128.191 208.588C160.468 232.485 208.403 206.277 172.217 160.875C136.032 115.474 293.479 142.785 230.009 97.8828Z" stroke="black" stroke-width="0.718515"/>
<path d="M227.187 100.623C179.734 60.413 134.09 110.96 117.2 141.26C106.812 152.644 92.0502 180.736 116.108 202.033C146.179 228.653 196.216 206.722 164.125 158.339C132.034 109.956 286.502 150.886 227.187 100.623Z" stroke="black" stroke-width="0.718515"/>
<path d="M223.706 103.087C179.939 58.8944 130.063 105.271 110.596 133.983C99.2555 144.419 82.1016 171.118 104.211 194.43C131.849 223.569 183.606 206.083 155.854 155.087C128.102 104.092 278.415 158.328 223.706 103.087Z" stroke="black" stroke-width="0.718515"/>
<path d="M219.594 105.22C179.844 57.3807 126.117 99.2337 104.221 126.14C92.0144 135.548 72.5987 160.65 92.5926 185.8C117.585 217.238 170.67 204.329 147.468 151.108C124.266 97.8883 269.28 165.019 219.594 105.22Z" stroke="black" stroke-width="0.718515"/>
<path d="M214.881 106.968C179.452 55.8467 122.281 92.8577 98.1241 117.753C85.1436 126.061 63.614 149.376 81.3398 176.173C103.497 209.669 157.505 201.436 139.03 146.396C120.555 91.3562 259.166 170.87 214.881 106.968Z" stroke="black" stroke-width="0.718515"/>
<path d="M209.603 108.279C178.765 54.2646 118.585 86.152 92.3505 108.848C78.6953 115.992 55.2156 137.342 70.5385 165.582C89.6921 200.882 144.212 197.387 130.604 140.946C116.997 84.5057 248.15 175.798 209.603 108.279Z" stroke="black" stroke-width="0.718516"/>
<path d="M203.8 109.107C177.787 52.6097 115.058 79.1308 86.9448 99.4535C72.7188 105.381 47.4677 124.603 60.271 154.071C76.2751 190.906 130.892 192.176 122.255 134.764C113.619 77.3524 236.317 179.728 203.8 109.107Z" stroke="black" stroke-width="0.718515"/>
<path d="M197.517 109.406C176.527 50.8572 111.725 71.8102 81.9479 89.6053C67.2594 94.2704 40.4291 111.219 50.6154 141.69C63.3482 179.78 117.647 185.805 114.047 127.859C110.446 69.913 223.755 182.593 197.517 109.406Z" stroke="black" stroke-width="0.718515"/>
<path d="M190.8 109.139C174.993 48.9828 108.611 64.2081 77.396 79.3403C62.3568 82.7074 34.1515 97.2526 41.6432 128.496C51.0079 167.55 104.575 178.286 106.039 120.246C107.502 62.2068 210.559 184.333 190.8 109.139Z" stroke="black" stroke-width="0.718515"/>
<path d="M183.703 108.27C173.199 46.9651 105.743 56.3469 73.3276 68.7009C58.0522 70.7445 28.6865 82.7761 33.4267 114.554C39.3519 154.276 91.7793 169.638 98.296 111.948C104.813 54.2565 196.833 184.901 183.703 108.27Z" stroke="black" stroke-width="0.718515"/>
<path d="M176.278 106.766C171.157 44.7789 103.14 48.2459 69.7717 57.7277C54.3763 58.4322 24.0737 67.8586 26.0263 99.9284C28.4669 140.016 79.3559 159.889 90.8759 102.986C102.396 46.0824 182.68 184.249 176.278 106.766Z" stroke="black" stroke-width="0.718515"/>
<path d="M168.583 104.6C168.884 42.4024 100.823 39.9281 66.7554 46.4656C51.3572 45.8256 20.3483 52.5751 19.4984 84.693C18.436 124.84 67.3992 149.074 83.8348 93.3909C100.27 37.708 168.207 182.346 168.583 104.6Z" stroke="black" stroke-width="0.718515"/>
<path d="M160.675 101.753C166.395 39.8189 98.8095 31.4222 64.3016 34.9656C49.0178 32.986 17.5387 37.0072 13.8927 68.9288C9.33521 108.831 56 137.239 77.2262 83.2009C98.4523 29.1624 153.524 179.171 160.675 101.753Z" stroke="black" stroke-width="0.718515"/>
<path d="M152.614 98.2108C163.711 37.0106 97.1145 22.7554 62.429 23.2777C47.3759 19.9736 15.6661 21.2359 9.25186 52.7183C1.23405 92.0712 45.2453 124.439 71.1004 72.4559C96.9556 20.473 138.744 174.711 152.614 98.2108Z" stroke="black" stroke-width="0.718515"/>
<path d="M144.463 93.9604C160.852 33.9603 95.7509 13.955 61.1519 11.4523C46.444 6.84882 14.7449 5.34265 5.6112 36.1462C-5.80594 74.6506 35.2168 110.731 65.5042 61.1991C95.7915 11.6674 123.978 168.961 144.463 93.9604Z" stroke="black" stroke-width="0.718515"/>
</svg>
