<svg width="412" height="571" viewBox="0 0 412 571" fill="none" xmlns="http://www.w3.org/2000/svg">
<path d="M283.859 152.199C335.479 209.489 373.828 268.863 394.115 318.523C404.26 343.356 409.871 365.719 410.391 384.155C410.912 402.595 406.341 416.994 396.259 426.079C386.176 435.164 371.38 438.214 353.094 435.782C334.812 433.349 313.152 425.447 289.507 412.778C242.222 387.444 187.151 343.136 135.532 285.847C83.9118 228.557 45.5625 169.183 25.2755 119.523C15.1306 94.6898 9.51965 72.3269 8.99906 53.8912C8.47835 35.4513 13.049 21.0518 23.1316 11.967C33.2143 2.88224 48.0105 -0.168398 66.2967 2.26432C84.5787 4.6965 106.238 12.5993 129.884 25.2681C177.169 50.6022 232.239 94.9096 283.859 152.199Z" stroke="black" stroke-width="1.58383"/>
<path d="M281.983 285.835C230.383 343.142 175.328 387.469 128.052 412.819C104.41 425.496 82.7538 433.406 64.4727 435.845C46.1874 438.284 31.3901 435.238 21.3043 426.157C11.2185 417.076 6.64287 402.678 7.15724 384.238C7.67145 365.802 13.2747 343.437 23.411 318.6C43.6809 268.933 82.0096 209.546 133.61 152.239C185.21 94.9312 240.265 50.6048 287.541 25.2543C311.182 12.5774 332.839 4.66708 351.12 2.22859C369.405 -0.210448 384.202 2.83508 394.288 11.9164C404.374 20.9977 408.95 35.3956 408.435 53.8356C407.921 72.2716 402.318 94.6363 392.182 119.473C371.912 169.14 333.583 228.527 281.983 285.835Z" stroke="black" stroke-width="1.58383"/>
<path d="M290.926 162.078C340.17 221.423 376.07 282.309 394.318 332.754C403.443 357.98 408.138 380.552 407.908 398.994C407.677 417.44 402.524 431.641 392.08 440.308C381.635 448.975 366.727 451.42 348.555 448.245C330.388 445.07 309.068 436.292 285.958 422.671C239.744 395.432 186.523 348.919 137.28 289.574C88.0356 230.23 52.136 169.344 33.8881 118.899C24.7629 93.6732 20.0672 71.1004 20.2978 52.6588C20.5285 34.213 25.6817 20.0116 36.1259 11.3449C46.5702 2.67827 61.4784 0.232707 79.6503 3.40807C97.8181 6.58272 119.138 15.361 142.248 28.9822C188.462 56.2208 241.682 102.734 290.926 162.078Z" stroke="black" stroke-width="1.58383"/>
<path d="M297.44 171.814C344.226 233.114 377.616 295.412 393.795 346.558C401.885 372.135 405.658 394.88 404.676 413.297C403.695 431.718 397.968 445.698 387.179 453.932C376.39 462.166 361.395 464.003 343.368 460.09C325.344 456.178 304.4 446.539 281.864 431.988C236.797 402.89 185.515 354.248 138.728 292.947C91.942 231.647 58.5516 169.349 42.3731 118.203C34.2827 92.6267 30.5102 69.8814 31.4916 51.4644C32.4732 33.0433 38.2005 19.0636 48.989 10.8294C59.7775 2.59525 74.7729 0.758811 92.8005 4.67155C110.824 8.5834 131.768 18.2226 154.304 32.7736C199.371 61.8716 250.653 110.514 297.44 171.814Z" stroke="black" stroke-width="1.58383"/>
<path d="M303.413 181.384C347.665 244.539 378.49 308.144 392.573 359.907C399.615 385.792 402.458 408.672 400.727 427.033C398.996 445.399 392.704 459.134 381.59 466.922C370.475 474.71 355.417 475.934 337.564 471.291C319.714 466.648 299.18 456.164 277.255 440.707C233.411 409.798 184.152 359.108 139.901 295.954C95.6495 232.799 64.8237 169.193 50.7414 117.43C43.6994 91.5456 40.8562 68.6656 42.5868 50.3039C44.3177 31.938 50.6095 18.2031 61.7244 10.4151C72.8393 2.6271 87.8971 1.40284 105.75 6.04646C123.599 10.689 144.134 21.1732 166.059 36.6298C209.903 67.5389 259.162 118.229 303.413 181.384Z" stroke="black" stroke-width="1.58383"/>
<path d="M308.846 190.763C350.489 255.667 378.699 320.475 390.662 372.768C396.644 398.918 398.553 421.895 396.076 440.171C393.599 458.451 386.753 471.919 375.33 479.248C363.907 486.577 348.812 487.187 331.163 481.82C313.517 476.454 293.427 465.143 272.15 448.806C229.601 416.137 182.447 363.483 140.804 298.579C99.1613 233.674 70.9513 168.866 58.9886 116.573C53.0065 90.4227 51.0974 67.4459 53.5743 49.1699C56.0517 30.8897 62.8976 17.4224 74.3204 10.0935C85.7433 2.76463 100.838 2.15458 118.488 7.52138C136.133 12.887 156.223 24.1986 177.501 40.5353C220.05 73.2042 267.204 125.858 308.846 190.763Z" stroke="black" stroke-width="1.58383"/>
<path d="M313.747 199.932C352.713 266.478 378.26 332.381 388.083 385.118C392.995 411.49 393.967 434.526 390.748 452.686C387.528 470.85 380.14 484.027 368.428 490.885C356.716 497.743 341.609 497.737 324.193 491.656C306.78 485.577 287.167 473.456 266.573 456.267C225.389 421.892 180.419 367.362 141.454 300.815C102.489 234.269 76.9413 168.366 67.118 115.629C62.2058 89.2566 61.234 66.2211 64.453 48.0611C67.6728 29.897 75.0614 16.7196 86.7733 9.86199C98.4851 3.00433 113.592 3.0095 131.009 9.09058C148.421 15.1703 168.034 27.2907 188.628 44.4802C229.812 78.8548 274.782 133.385 313.747 199.932Z" stroke="black" stroke-width="1.58383"/>
<path d="M318.129 208.868C354.352 276.946 377.194 343.835 384.862 396.928C388.696 423.478 388.729 446.534 384.773 464.548C380.816 482.566 372.897 495.431 360.916 501.806C348.934 508.181 333.84 507.561 316.686 500.776C299.536 493.992 280.432 481.083 260.555 463.069C220.806 427.046 178.093 370.729 141.87 302.651C105.647 234.573 82.8048 167.684 75.1373 114.591C71.303 88.041 71.2701 64.985 75.226 46.9711C79.1828 28.9532 87.102 16.0877 99.0833 9.71268C111.065 3.33765 126.159 3.95803 143.313 10.7433C160.464 17.527 179.567 30.4361 199.444 48.45C239.194 84.4732 281.906 140.79 318.129 208.868Z" stroke="black" stroke-width="1.58383"/>
<path d="M321.997 217.552C355.418 287.048 375.517 354.812 381.017 408.173C383.766 434.858 382.86 457.896 378.174 475.733C373.487 493.575 365.05 506.108 352.819 511.99C340.588 517.871 325.532 516.637 308.668 509.159C291.808 501.682 273.247 488.006 254.119 469.197C215.87 431.585 175.486 373.576 142.066 304.08C108.645 234.583 88.5454 166.819 83.0464 113.458C80.2965 86.7736 81.2025 63.7354 85.8887 45.8976C90.576 28.0558 99.0124 15.5234 111.243 9.6416C123.475 3.75977 138.531 4.99433 155.395 12.4725C172.255 19.949 190.816 33.6253 209.944 52.4338C248.193 90.0457 288.577 148.055 321.997 217.552Z" stroke="black" stroke-width="1.58383"/>
<path d="M325.367 225.961C355.93 296.761 373.253 365.287 376.575 418.828C378.236 445.602 376.392 468.584 370.983 486.216C365.573 503.852 356.634 516.031 344.173 521.41C331.713 526.788 316.719 524.942 300.174 516.783C283.632 508.626 265.643 494.205 247.297 474.634C210.611 435.495 172.623 375.89 142.061 305.09C111.498 234.29 94.1746 165.764 90.8532 112.223C89.1922 85.4485 91.0356 62.4663 96.4444 44.8341C101.854 27.198 110.794 15.0196 123.255 9.64071C135.715 4.26184 150.709 6.10854 167.254 14.2673C183.795 22.4241 201.785 36.8449 220.13 56.4167C256.816 95.5551 294.804 155.161 325.367 225.961Z" stroke="black" stroke-width="1.58383"/>
<path d="M328.244 234.077C355.898 306.063 370.416 375.237 371.555 428.869C372.124 455.689 369.346 478.577 363.224 495.974C357.1 513.375 347.672 525.179 335.003 530.046C322.334 534.913 307.427 532.458 291.228 523.632C275.033 514.808 257.645 499.667 240.112 479.364C205.05 438.764 169.521 377.661 141.867 305.675C114.213 233.69 99.6944 164.515 98.556 110.883C97.9868 84.0636 100.765 61.1755 106.887 43.7782C113.01 26.377 122.439 14.5727 135.108 9.70575C147.777 4.83877 162.684 7.29453 178.883 16.1202C195.078 24.9439 212.465 40.0854 229.998 60.388C265.06 100.988 300.589 162.091 328.244 234.077Z" stroke="black" stroke-width="1.58383"/>
<path d="M330.649 241.878C355.349 314.931 367.039 384.639 365.992 438.273C365.469 465.093 361.761 487.849 354.935 504.983C348.108 522.12 338.207 533.531 325.35 537.878C312.493 542.225 297.699 539.164 281.873 529.686C266.05 520.21 249.294 504.373 232.602 483.373C199.223 441.379 166.212 378.88 141.512 305.828C116.812 232.776 105.122 163.067 106.169 109.433C106.692 82.6129 110.4 59.8569 117.226 42.7234C124.053 25.586 133.954 14.1755 146.811 9.82845C159.668 5.48142 174.462 8.54218 190.288 18.0202C206.111 27.4961 222.867 43.3331 239.559 64.3329C272.938 106.327 305.95 168.826 330.649 241.878Z" stroke="black" stroke-width="1.58383"/>
<path d="M332.586 249.348C354.29 323.346 363.131 393.472 359.901 447.019C358.286 473.796 353.655 496.382 346.137 513.223C338.618 530.069 328.26 541.066 315.237 544.886C302.214 548.706 287.557 545.045 272.13 534.931C256.706 524.818 240.609 508.312 224.786 486.65C193.144 443.332 162.705 379.54 141.001 305.542C119.296 231.545 110.455 161.418 113.685 107.872C115.3 81.0947 119.931 58.5086 127.449 41.6672C134.969 24.8221 145.326 13.8242 158.349 10.0043C171.373 6.18449 186.03 9.84516 201.457 19.9598C216.88 30.0722 232.978 46.5784 248.801 68.2405C280.442 111.559 310.881 175.351 332.586 249.348Z" stroke="black" stroke-width="1.58383"/>
<path d="M334.078 256.468C352.751 331.288 358.729 401.716 353.322 455.087C350.617 481.776 345.07 504.155 336.873 520.676C328.674 537.201 317.877 547.768 304.709 551.054C291.541 554.34 277.045 550.086 262.043 539.351C247.044 528.619 231.632 511.471 216.704 489.183C186.853 444.612 159.037 379.633 140.364 304.813C121.691 229.993 115.713 159.565 121.121 106.194C123.825 79.5052 129.372 57.1265 137.569 40.6052C145.768 24.0802 156.565 13.5133 169.733 10.2269C182.901 6.94059 197.397 11.1951 212.4 21.9296C227.399 32.6617 242.81 49.8097 257.738 72.0982C287.589 116.669 315.405 181.648 334.078 256.468Z" stroke="black" stroke-width="1.58383"/>
<path d="M335.132 263.215C350.743 338.733 353.848 409.347 346.271 462.453C342.482 489.01 336.028 511.144 327.165 527.318C318.3 543.495 307.081 553.613 293.791 556.361C280.5 559.108 266.189 554.267 251.636 542.93C237.087 531.596 222.386 513.835 208.378 490.957C180.367 445.207 155.22 379.15 139.61 303.632C123.999 228.113 120.894 157.5 128.471 104.394C132.259 77.8371 138.713 55.7027 147.577 39.529C156.442 23.3516 167.66 13.2331 180.951 10.4858C194.242 7.73836 208.552 12.5797 223.105 23.9162C237.655 35.2502 252.356 53.0116 266.363 75.8895C294.375 121.639 319.521 187.696 335.132 263.215Z" stroke="black" stroke-width="1.58383"/>
<path d="M335.764 269.578C348.287 345.669 348.514 416.351 338.781 469.104C333.913 495.485 326.564 517.338 317.049 533.137C307.532 548.94 295.911 558.594 282.52 560.797C269.128 563.001 255.026 557.581 240.947 545.661C226.871 533.744 212.906 515.399 199.842 491.97C173.716 445.117 151.281 378.091 138.758 301.999C126.236 225.908 126.009 155.227 135.742 102.473C140.609 76.0926 147.959 54.2395 157.473 38.4401C166.99 22.6371 178.611 12.9839 192.003 10.78C205.395 8.57613 219.496 13.9962 233.575 25.916C247.651 37.833 261.616 56.1783 274.681 79.6077C300.806 126.46 323.242 193.487 335.764 269.578Z" stroke="black" stroke-width="1.58383"/>
<path d="M336.001 275.536C345.414 352.074 342.763 422.706 330.889 475.02C324.952 501.18 316.718 522.716 306.568 538.114C296.416 553.517 284.411 562.689 270.941 564.345C257.471 566.002 243.602 560.012 230.02 547.529C216.441 535.049 203.234 516.15 191.135 492.208C166.939 444.33 147.251 376.446 137.838 299.908C128.425 223.369 131.076 152.737 142.949 100.424C148.887 74.2636 157.12 52.7279 167.271 37.3291C177.423 21.9268 189.427 12.7548 202.898 11.0981C216.368 9.44141 230.237 15.4312 243.819 27.9144C257.398 40.3949 270.605 59.2936 282.704 83.2356C306.9 131.113 326.588 198.997 336.001 275.536Z" stroke="black" stroke-width="1.58383"/>
<path d="M335.841 281.075C342.13 357.933 336.604 428.398 322.61 480.185C315.613 506.082 306.509 527.264 295.74 542.237C284.969 557.213 272.601 565.889 259.074 566.995C245.548 568.102 231.934 561.553 218.871 548.527C205.812 535.504 193.386 516.083 182.271 491.668C160.046 442.845 143.139 374.215 136.85 297.357C130.561 220.499 136.087 150.033 150.081 98.2467C157.079 72.3499 166.182 51.1674 176.951 36.1947C187.722 21.2186 200.09 12.543 213.617 11.4363C227.144 10.3295 240.757 16.8791 253.82 29.9051C266.879 42.9281 279.305 62.349 290.42 86.7638C312.645 135.587 329.552 204.217 335.841 281.075Z" stroke="black" stroke-width="1.58383"/>
<path d="M335.318 286.178C338.472 363.228 330.081 433.41 313.99 484.584C305.943 510.175 295.984 530.969 284.615 545.49C273.243 560.016 260.532 568.18 246.971 568.735C233.411 569.29 220.075 562.192 207.554 548.645C195.036 535.101 183.411 515.19 173.3 490.343C153.081 440.655 138.983 371.393 135.829 294.343C132.675 217.293 141.066 147.111 157.157 95.9368C165.204 70.3465 175.162 49.5522 186.532 35.0305C197.904 20.5055 210.615 12.3408 224.176 11.7858C237.736 11.2307 251.072 18.3293 263.593 31.8764C276.111 45.4205 287.736 65.3313 297.847 90.1784C318.066 139.866 332.164 209.128 335.318 286.178Z" stroke="black" stroke-width="1.58383"/>
<path d="M334.445 290.832C334.459 367.947 323.217 437.729 305.055 488.205C295.973 513.447 285.176 533.818 273.225 547.865C261.27 561.915 248.237 569.555 234.666 569.558C221.094 569.56 208.058 561.924 196.099 547.878C184.143 533.836 173.338 513.468 164.248 488.23C146.069 437.76 134.803 367.982 134.789 290.867C134.776 213.752 146.018 143.97 164.179 93.4938C173.261 68.2524 184.059 47.8809 196.01 33.8342C207.964 19.7844 220.997 12.1441 234.569 12.1417C248.141 12.1394 261.177 19.7752 273.136 33.8209C285.092 47.8635 295.897 68.2312 304.987 93.4695C323.166 143.939 334.432 213.717 334.445 290.832Z" stroke="black" stroke-width="1.58383"/>
<path d="M333.235 295.022C330.107 372.074 316.033 441.34 295.831 491.035C285.729 515.885 274.111 535.8 261.597 549.348C249.081 562.9 235.748 570.003 222.187 569.453C208.626 568.902 195.912 560.742 184.535 546.221C173.161 531.703 163.195 510.912 155.139 485.325C139.031 434.157 130.616 363.978 133.743 286.926C136.87 209.875 150.944 140.608 171.146 90.9136C181.248 66.0629 192.866 46.1481 205.38 32.5997C217.896 19.0483 231.23 11.9451 244.79 12.4954C258.351 13.0458 271.065 21.2061 282.442 35.7272C293.816 50.245 303.783 71.0358 311.838 96.6233C327.947 147.792 336.362 217.971 333.235 295.022Z" stroke="black" stroke-width="1.58383"/>
<path d="M331.714 298.736C325.452 375.596 308.569 444.232 286.36 493.063C275.254 517.481 262.834 536.907 249.779 549.934C236.722 562.965 223.11 569.519 209.583 568.417C196.056 567.315 183.685 558.644 172.909 543.671C162.135 528.702 153.024 507.523 146.017 481.628C132.005 429.847 126.455 359.383 132.717 282.523C138.98 205.663 155.863 137.027 178.072 88.1961C189.178 63.7775 201.597 44.3523 214.652 31.3248C227.71 18.2943 241.321 11.7399 254.848 12.842C268.375 13.9442 280.746 22.6154 291.523 37.5878C302.297 52.5568 311.408 73.7362 318.414 99.6305C332.426 151.412 337.976 221.876 331.714 298.736Z" stroke="black" stroke-width="1.58383"/>
<path d="M329.898 301.96C320.511 378.501 300.847 446.393 276.668 494.278C264.576 518.225 251.376 537.128 237.802 549.613C224.224 562.101 210.357 568.096 196.886 566.443C183.415 564.791 171.407 555.624 161.25 540.225C151.094 524.829 142.853 503.297 136.907 477.138C125.016 424.829 122.339 354.198 131.726 277.656C141.113 201.115 160.778 133.224 184.957 85.3378C197.048 61.3917 210.248 42.4884 223.822 30.0033C237.4 17.5154 251.267 11.5208 264.738 13.1728C278.209 14.8249 290.217 23.9927 300.374 39.3915C310.53 54.7868 318.771 76.3197 324.717 102.478C336.609 154.787 339.285 225.418 329.898 301.96Z" stroke="black" stroke-width="1.58383"/>
<path d="M327.81 304.684C315.314 380.78 292.901 447.814 266.792 494.675C253.736 518.109 239.777 536.459 225.705 548.381C211.63 560.306 197.53 565.731 184.138 563.532C170.745 561.332 159.121 551.683 149.599 535.883C140.079 520.087 132.721 498.237 127.845 471.858C118.094 419.108 118.296 348.426 130.793 272.331C143.289 196.235 165.701 129.201 191.81 82.3392C204.867 58.9053 218.826 40.5552 232.897 28.6332C246.972 16.7086 261.072 11.2837 274.464 13.4829C287.857 15.6822 299.481 25.3314 309.003 41.1311C318.524 56.9272 325.881 78.7778 330.757 105.156C340.508 157.907 340.306 228.588 327.81 304.684Z" stroke="black" stroke-width="1.58383"/>
<path d="M325.467 306.897C309.882 382.421 284.758 448.487 256.763 494.246C242.763 517.129 228.068 534.896 213.523 546.235C198.974 557.576 184.665 562.422 171.373 559.68C158.081 556.937 146.86 546.822 137.989 530.648C129.12 514.477 122.658 492.345 118.86 465.79C111.265 412.686 114.346 342.072 129.931 266.548C145.515 191.024 170.639 124.958 198.635 79.1989C212.634 56.3162 227.329 38.5497 241.875 27.2107C256.424 15.8691 270.733 11.0229 284.024 13.7657C297.316 16.5085 308.538 26.6231 317.409 42.7974C326.278 58.9681 332.739 81.1002 336.537 107.656C344.132 160.759 341.051 231.374 325.467 306.897Z" stroke="black" stroke-width="1.58383"/>
<path d="M322.894 308.587C304.247 383.413 276.453 448.401 246.617 492.983C231.698 515.276 216.292 532.429 201.296 543.167C186.298 553.906 171.803 558.166 158.634 554.884C145.465 551.602 134.664 541.039 126.46 524.517C118.257 507.999 112.702 485.622 109.988 458.934C104.562 405.565 110.516 335.134 129.163 260.308C147.81 185.481 175.604 120.494 205.439 75.9121C220.359 53.6185 235.765 36.4652 250.761 25.7279C265.759 14.9882 280.254 10.7287 293.423 14.0105C306.592 17.2923 317.393 27.8555 325.597 44.3776C333.8 60.896 339.355 83.2729 342.069 109.961C347.495 163.33 341.541 233.76 322.894 308.587Z" stroke="black" stroke-width="1.58383"/>
<path d="M320.109 309.747C298.43 383.752 268.013 447.554 236.386 490.883C220.571 512.551 204.479 529.063 189.059 539.18C173.635 549.3 158.979 552.966 145.955 549.151C132.931 545.335 122.569 534.341 115.044 517.498C107.52 500.66 102.881 478.075 101.257 451.299C98.0086 397.753 106.825 327.624 128.504 253.619C150.183 179.614 180.6 115.811 212.227 72.482C228.042 50.8144 244.134 34.3027 259.554 24.185C274.977 14.065 289.633 10.3992 302.658 14.2146C315.682 18.03 326.044 29.0242 333.569 45.8668C341.093 62.7056 345.732 85.2901 347.356 112.066C350.604 165.612 341.787 235.742 320.109 309.747Z" stroke="black" stroke-width="1.58383"/>
<path d="M317.136 310.369C292.462 383.43 259.472 445.941 226.107 487.946C209.422 508.952 192.672 524.794 176.852 534.276C161.029 543.759 146.236 546.825 133.378 542.483C120.52 538.14 110.615 526.733 103.781 509.598C96.9499 492.467 93.2344 469.712 92.7018 442.892C91.6367 389.258 103.302 319.546 127.977 246.485C152.651 173.424 185.641 110.914 219.006 68.908C235.691 47.9024 252.441 32.0597 268.261 22.5783C284.084 13.0948 298.877 10.0289 311.735 14.3715C324.593 18.7141 334.498 30.1212 341.331 47.2563C348.163 64.3874 351.878 87.1421 352.411 113.962C353.476 167.596 341.811 237.308 317.136 310.369Z" stroke="black" stroke-width="1.58383"/>
<path d="M313.995 310.447C286.366 382.442 250.858 443.557 215.81 484.169C198.284 504.478 180.902 519.626 164.71 528.455C148.514 537.286 133.608 539.747 120.937 534.884C108.266 530.022 98.8341 518.221 92.7044 500.822C86.5761 483.427 83.7904 460.54 84.3504 433.72C85.4703 380.087 99.9649 310.908 127.594 238.913C155.224 166.917 190.731 105.802 225.779 65.1898C243.306 44.8811 260.688 29.7337 276.88 20.9044C293.076 12.0731 307.981 9.61215 320.652 14.4748C333.323 19.3374 342.756 31.1384 348.885 48.5375C355.013 65.9326 357.799 88.8197 357.239 115.639C356.119 169.272 341.625 238.451 313.995 310.447Z" stroke="black" stroke-width="1.58383"/>
<path d="M310.712 309.97C280.174 380.781 242.207 440.4 205.534 479.551C187.195 499.129 169.211 513.556 152.672 521.718C136.13 529.883 121.137 531.735 108.674 526.36C96.2122 520.986 87.2681 508.81 81.8521 491.176C76.4373 473.546 74.5859 450.564 76.2376 423.789C79.5406 370.247 96.8404 301.715 127.379 230.905C157.917 160.094 195.884 100.476 232.557 61.3245C250.895 41.7464 268.88 27.3193 285.418 19.1567C301.96 10.9923 316.954 9.14045 329.416 14.515C341.879 19.8896 350.823 32.0649 356.239 49.6992C361.653 67.3295 363.505 90.311 361.853 117.086C358.55 170.628 341.25 239.16 310.712 309.97Z" stroke="black" stroke-width="1.58383"/>
<path d="M307.305 308.936C273.909 378.444 233.545 436.467 195.308 474.092C176.188 492.907 157.631 506.59 140.774 514.072C123.913 521.556 108.856 522.796 96.6231 516.918C84.39 511.041 75.9492 498.511 71.2558 480.671C66.5634 462.835 65.6494 439.797 68.3901 413.112C73.8707 359.748 93.947 291.978 127.343 222.47C160.74 152.961 201.104 94.9384 239.34 57.3132C258.461 38.4982 277.018 24.8155 293.875 17.3331C310.736 9.84913 325.792 8.60937 338.025 14.487C350.259 20.3646 358.699 32.894 363.393 50.7342C368.085 68.5704 368.999 91.6083 366.258 118.294C360.778 171.657 340.702 239.427 307.305 308.936Z" stroke="black" stroke-width="1.58383"/>
<path d="M303.801 307.342C267.602 375.432 224.909 431.764 185.172 467.8C165.301 485.821 146.202 498.737 129.054 505.526C111.902 512.318 96.8078 512.943 84.8243 506.572C72.8407 500.201 64.9171 487.339 60.9541 469.322C56.992 451.31 57.0169 428.254 60.842 401.702C68.4912 348.606 91.3105 281.71 127.51 213.619C163.709 145.528 206.402 89.1973 246.139 53.1604C266.01 35.1396 285.109 22.2239 302.257 15.4343C319.409 8.64308 334.503 8.01749 346.487 14.3884C358.47 20.7593 366.394 33.6221 370.357 51.6386C374.319 69.6511 374.294 92.7071 370.469 119.259C362.82 172.354 340.001 239.251 303.801 307.342Z" stroke="black" stroke-width="1.58383"/>
<path d="M300.217 305.181C261.275 371.741 216.324 426.287 175.152 460.676C154.564 477.873 134.955 490 117.545 496.086C100.13 502.173 85.0231 502.183 73.3089 495.329C61.5947 488.476 54.2015 475.301 50.9754 457.138C47.7501 438.979 48.7139 415.943 53.6171 389.57C63.4221 336.829 88.9468 270.917 127.889 204.357C166.831 137.797 211.783 83.2515 252.954 48.8627C273.543 31.6661 293.152 19.5389 310.562 13.4532C327.976 7.36607 343.083 7.35569 354.797 14.2093C366.512 21.0629 373.905 34.2377 377.131 52.4007C380.356 70.5595 379.392 93.5954 374.489 119.969C364.684 172.709 339.159 238.621 300.217 305.181Z" stroke="black" stroke-width="1.58383"/>
<path d="M296.586 302.452C254.966 367.371 207.831 420.041 165.293 452.725C144.021 469.069 123.935 480.387 106.291 485.759C88.6436 491.132 73.5483 490.527 62.1229 483.202C50.6976 475.877 43.847 462.412 41.3633 444.133C38.8801 425.858 40.7812 402.88 46.7543 376.728C58.699 324.431 86.8865 259.613 128.507 194.694C170.127 129.775 217.263 77.1048 259.801 44.4212C281.072 28.0772 301.159 16.7586 318.802 11.3869C336.45 6.01401 351.545 6.61884 362.97 13.9438C374.396 21.2688 381.246 34.7337 383.73 53.013C386.213 71.2881 384.312 94.2656 378.339 120.418C366.394 172.715 338.207 237.533 296.586 302.452Z" stroke="black" stroke-width="1.58383"/>
<path d="M292.922 299.152C248.693 362.322 199.451 413.029 155.618 443.953C133.698 459.417 113.167 469.908 95.3198 474.557C77.4681 479.207 62.41 477.988 51.2924 470.204C40.1748 462.419 33.8782 448.687 32.1409 430.321C30.404 411.96 33.2393 389.079 40.2724 363.192C54.3368 311.425 85.1406 247.808 129.37 184.638C173.6 121.468 222.841 70.7611 266.674 39.8369C288.594 24.3727 309.125 13.8814 326.972 9.23271C344.824 4.58292 359.882 5.80198 371 13.5861C382.117 21.3703 388.414 35.103 390.151 53.4683C391.888 71.8294 389.053 94.7104 382.02 120.598C367.955 172.365 337.152 235.981 292.922 299.152Z" stroke="black" stroke-width="1.58383"/>
<path d="M289.253 295.284C242.488 356.6 191.222 405.26 146.166 434.373C123.635 448.932 102.694 458.579 84.6718 462.497C66.6456 466.416 51.6496 464.584 40.8582 456.354C30.0668 448.124 24.3347 434.146 23.3467 415.725C22.359 397.308 26.1236 374.562 34.2051 348.982C50.366 297.831 83.7348 235.522 130.5 174.205C177.265 112.888 228.531 64.2287 273.587 35.1151C296.118 20.5564 317.059 10.9099 335.081 6.99184C353.108 3.07288 368.104 4.90413 378.895 13.1346C389.686 21.365 395.419 35.3428 396.407 53.7635C397.394 72.1801 393.63 94.9267 385.548 120.506C369.387 171.658 336.018 233.967 289.253 295.284Z" stroke="black" stroke-width="1.58383"/>
<path d="M285.599 290.844C236.376 350.206 183.171 396.737 136.967 423.992C113.861 437.621 92.5447 446.407 74.378 449.588C56.2072 452.769 41.2982 450.329 30.8509 441.666C20.4036 433.003 15.2455 418.803 15.0085 400.357C14.7715 381.916 19.4594 359.341 28.5759 334.112C46.8063 283.661 82.6849 222.763 131.908 163.401C181.132 104.04 234.336 57.5083 280.541 30.2536C303.646 16.6245 324.963 7.83884 343.129 4.65792C361.3 1.47627 376.209 3.91669 386.656 12.5797C397.104 21.2428 402.262 35.4424 402.499 53.8881C402.736 72.3297 398.048 94.9041 388.932 120.133C370.701 170.584 334.822 231.483 285.599 290.844Z" stroke="black" stroke-width="1.58383"/>
</svg>
